<mxfile host="app.diagrams.net" modified="2022-08-22T07:34:30.737Z" agent="5.0 (X11; Linux x86_64) AppleWebKit/537.36 (KHTML, like Gecko) Chrome/104.0.0.0 Safari/537.36" etag="2kGEhY7hUmZcbmC95Aez" version="20.2.6" type="github">
  <diagram name="Page-1" id="c37626ed-c26b-45fb-9056-f9ebc6bb27b6">
    <mxGraphModel dx="1422" dy="877" grid="1" gridSize="10" guides="1" tooltips="1" connect="1" arrows="1" fold="1" page="1" pageScale="1" pageWidth="1100" pageHeight="850" background="none" math="0" shadow="0">
      <root>
        <mxCell id="0" />
        <mxCell id="1" parent="0" />
        <mxCell id="C619uP3odZ40OXFEFNgw-1" value="" style="shape=mxgraph.cisco.routers.wireless_router;sketch=0;html=1;pointerEvents=1;dashed=0;fillColor=#036897;strokeColor=#ffffff;strokeWidth=2;verticalLabelPosition=bottom;verticalAlign=top;align=center;outlineConnect=0;" vertex="1" parent="1">
          <mxGeometry x="472" y="340" width="78" height="77" as="geometry" />
        </mxCell>
        <mxCell id="C619uP3odZ40OXFEFNgw-2" value="WAN" style="ellipse;shape=cloud;whiteSpace=wrap;html=1;" vertex="1" parent="1">
          <mxGeometry x="451" y="210" width="120" height="80" as="geometry" />
        </mxCell>
        <mxCell id="C619uP3odZ40OXFEFNgw-4" value="" style="endArrow=none;html=1;rounded=0;entryX=0.492;entryY=1;entryDx=0;entryDy=0;entryPerimeter=0;" edge="1" parent="1" source="C619uP3odZ40OXFEFNgw-1" target="C619uP3odZ40OXFEFNgw-2">
          <mxGeometry width="50" height="50" relative="1" as="geometry">
            <mxPoint x="500" y="348" as="sourcePoint" />
            <mxPoint x="550" y="298" as="targetPoint" />
          </mxGeometry>
        </mxCell>
        <mxCell id="C619uP3odZ40OXFEFNgw-16" value="" style="edgeStyle=orthogonalEdgeStyle;rounded=0;orthogonalLoop=1;jettySize=auto;html=1;" edge="1" parent="1" source="C619uP3odZ40OXFEFNgw-5" target="C619uP3odZ40OXFEFNgw-8">
          <mxGeometry relative="1" as="geometry" />
        </mxCell>
        <mxCell id="C619uP3odZ40OXFEFNgw-18" value="" style="edgeStyle=orthogonalEdgeStyle;rounded=0;orthogonalLoop=1;jettySize=auto;html=1;" edge="1" parent="1" source="C619uP3odZ40OXFEFNgw-5" target="C619uP3odZ40OXFEFNgw-1">
          <mxGeometry relative="1" as="geometry" />
        </mxCell>
        <mxCell id="C619uP3odZ40OXFEFNgw-5" value="" style="shape=mxgraph.cisco.computers_and_peripherals.laptop;sketch=0;html=1;pointerEvents=1;dashed=0;fillColor=#036897;strokeColor=#ffffff;strokeWidth=2;verticalLabelPosition=bottom;verticalAlign=top;align=center;outlineConnect=0;" vertex="1" parent="1">
          <mxGeometry x="453" y="490" width="90" height="61" as="geometry" />
        </mxCell>
        <mxCell id="C619uP3odZ40OXFEFNgw-6" value="" style="shape=mxgraph.cisco.servers.fileserver;sketch=0;html=1;pointerEvents=1;dashed=0;fillColor=#036897;strokeColor=#ffffff;strokeWidth=2;verticalLabelPosition=bottom;verticalAlign=top;align=center;outlineConnect=0;" vertex="1" parent="1">
          <mxGeometry x="476.5" y="600" width="43" height="62" as="geometry" />
        </mxCell>
        <mxCell id="C619uP3odZ40OXFEFNgw-8" value="" style="shape=mxgraph.cisco.computers_and_peripherals.pc;sketch=0;html=1;pointerEvents=1;dashed=0;fillColor=#036897;strokeColor=#ffffff;strokeWidth=2;verticalLabelPosition=bottom;verticalAlign=top;align=center;outlineConnect=0;" vertex="1" parent="1">
          <mxGeometry x="558" y="551" width="78" height="70" as="geometry" />
        </mxCell>
        <mxCell id="C619uP3odZ40OXFEFNgw-13" value="" style="endArrow=none;html=1;rounded=0;entryX=0.5;entryY=1;entryDx=0;entryDy=0;entryPerimeter=0;exitX=0.5;exitY=0;exitDx=0;exitDy=0;exitPerimeter=0;" edge="1" parent="1" source="C619uP3odZ40OXFEFNgw-6" target="C619uP3odZ40OXFEFNgw-5">
          <mxGeometry width="50" height="50" relative="1" as="geometry">
            <mxPoint x="473" y="620" as="sourcePoint" />
            <mxPoint x="523" y="570" as="targetPoint" />
          </mxGeometry>
        </mxCell>
        <mxCell id="C619uP3odZ40OXFEFNgw-20" value="" style="edgeStyle=orthogonalEdgeStyle;rounded=0;orthogonalLoop=1;jettySize=auto;html=1;" edge="1" parent="1" source="C619uP3odZ40OXFEFNgw-19" target="C619uP3odZ40OXFEFNgw-6">
          <mxGeometry relative="1" as="geometry" />
        </mxCell>
        <mxCell id="C619uP3odZ40OXFEFNgw-19" value="Rsyslog Server&lt;br&gt;" style="text;html=1;align=center;verticalAlign=middle;resizable=0;points=[];autosize=1;strokeColor=none;fillColor=none;" vertex="1" parent="1">
          <mxGeometry x="448" y="690" width="100" height="30" as="geometry" />
        </mxCell>
        <mxCell id="C619uP3odZ40OXFEFNgw-29" value="" style="edgeStyle=orthogonalEdgeStyle;rounded=0;orthogonalLoop=1;jettySize=auto;html=1;" edge="1" parent="1" source="C619uP3odZ40OXFEFNgw-21" target="C619uP3odZ40OXFEFNgw-8">
          <mxGeometry relative="1" as="geometry" />
        </mxCell>
        <mxCell id="C619uP3odZ40OXFEFNgw-21" value="Windows Client&lt;br&gt;" style="text;html=1;align=center;verticalAlign=middle;resizable=0;points=[];autosize=1;strokeColor=none;fillColor=none;" vertex="1" parent="1">
          <mxGeometry x="610" y="640" width="110" height="30" as="geometry" />
        </mxCell>
        <mxCell id="C619uP3odZ40OXFEFNgw-25" value="" style="edgeStyle=orthogonalEdgeStyle;rounded=0;orthogonalLoop=1;jettySize=auto;html=1;" edge="1" parent="1" source="C619uP3odZ40OXFEFNgw-23" target="C619uP3odZ40OXFEFNgw-5">
          <mxGeometry relative="1" as="geometry" />
        </mxCell>
        <mxCell id="C619uP3odZ40OXFEFNgw-23" value="Linux Client&lt;br&gt;" style="text;html=1;align=center;verticalAlign=middle;resizable=0;points=[];autosize=1;strokeColor=none;fillColor=none;" vertex="1" parent="1">
          <mxGeometry x="330" y="521" width="90" height="30" as="geometry" />
        </mxCell>
        <mxCell id="C619uP3odZ40OXFEFNgw-28" value="" style="edgeStyle=orthogonalEdgeStyle;rounded=0;orthogonalLoop=1;jettySize=auto;html=1;" edge="1" parent="1" source="C619uP3odZ40OXFEFNgw-26" target="C619uP3odZ40OXFEFNgw-1">
          <mxGeometry relative="1" as="geometry" />
        </mxCell>
        <mxCell id="C619uP3odZ40OXFEFNgw-26" value="Wireless Home Router&lt;br&gt;" style="text;html=1;align=center;verticalAlign=middle;resizable=0;points=[];autosize=1;strokeColor=none;fillColor=none;" vertex="1" parent="1">
          <mxGeometry x="519.5" y="417" width="140" height="30" as="geometry" />
        </mxCell>
      </root>
    </mxGraphModel>
  </diagram>
</mxfile>
